<svg version="1.0" xmlns="http://www.w3.org/2000/svg" width="682.667" height="682.667" viewBox="0 0 512 512"><path d="M206.6 70.5c-2.2.8-5.2 2.6-6.7 4.2-1.4 1.5-31.4 51.8-66.5 111.8-61.9 105.7-63.8 109.2-63.8 114.1 0 10.4-6.4 6.1 113.4 76.3 59.5 34.9 110.1 64.1 112.4 64.9 5 1.8 10 1.1 14.7-2.1 2.7-1.8 16.5-24.6 67.6-111.7 35.3-60.2 64.5-111 64.9-112.8 1-5.3-.4-10.1-4.4-14.3-2.5-2.6-33.5-21.3-95.7-57.7C217.3 69.9 218 70.3 214 69.7c-2-.4-5.2 0-7.4.8zm112.8 76.6c58.3 34.2 106.7 62.8 107.5 63.5 1.1 1-9.2 19.2-60.9 107.6-34.3 58.4-63.1 107.1-64 108.1-1.6 1.8-6.3-.8-109.1-61.1-84.7-49.7-107.4-63.4-107.4-65C85.5 297.4 210.2 85 211.8 85c.8 0 49.2 28 107.6 62.1z"/><path d="M218.5 115.8c-2 1.3-6.5 7.9-13.9 20.6-9.7 16.8-10.8 19.1-10.3 22.3.4 1.9 1.4 4.4 2.3 5.4 1.5 1.7 27.2 17.2 35.1 21.3 4.3 2.2 8.5 2 11.6-.4 2.2-1.8 19.6-30.2 22.8-37.2 1.4-3.3.5-9-1.9-11.1-3.8-3.4-36.6-21.9-39.5-22.3-2.1-.3-4.2.2-6.2 1.4zm24.5 25.5c3.6 2.2 6.7 4.1 6.8 4.2.5.4-13.7 24.5-14.4 24.5-.3 0-5.9-3.2-12.5-7.1l-12-7 2.7-4.7c1.5-2.6 4.7-8.2 7.3-12.4l4.5-7.7 5.6 3.1c3 1.8 8.4 4.9 12 7.1zm41.5 12.6c-3.1 1.4-4.6 3.5-15.4 21.8-10.4 17.6-11.3 20.5-8.9 25.8 1.3 2.9 35.4 23.4 40.4 24.2 6.2 1 8.4-1.4 19.8-20.7 5.8-9.9 10.8-19.1 11.2-20.4.3-1.3-.1-3.9-.9-5.8-1.2-3-4-5-19.8-14.2-18.1-10.6-22.5-12.4-26.4-10.7zm18.5 23.6c6.3 3.7 11.6 6.8 11.7 6.9.2.2-13.5 23.7-14.2 24.4-.4.5-23.4-12.9-24.1-14-.7-1 13.4-25 14.4-24.5.4.2 5.9 3.5 12.2 7.2zM176.8 183c-2.2 1.6-16.9 25.4-22.2 35.7-4.2 8.3-2 11.1 18.6 23.1 21.4 12.5 22.6 13 27.4 10.5 3.2-1.5 5.3-4.5 14.5-20.3 12.4-21.1 12.9-23.2 7.7-28.4-1.8-1.8-10.8-7.6-20-12.9-17.9-10.4-21.3-11.4-26-7.7zm19.8 21.6c6.3 3.6 11.6 6.9 11.8 7.3.7 1-13.3 24.6-14.4 24.4-.8-.2-22.8-13-23.8-13.9-.5-.3 13.8-24.4 14.5-24.4.3 0 5.7 3 11.9 6.6zM350 193.4c-2.4 1.4-5.6 6.3-18.7 29-6.9 11.9-7.3 14.4-3.5 19.4 2.7 3.6 37.2 23.2 40.7 23.2 5.6-.1 7.6-2.3 18.6-21.1 12.2-20.8 13-23.6 8.2-28.8-3.8-4-37.1-23.1-40.3-23.1-1.4.1-3.6.7-5 1.4zm18.2 22.2c6.2 3.7 11.7 7 12.2 7.5.8.7-11.6 23.3-13.4 24.4-.4.3-6.2-2.7-12.9-6.6l-12.1-7.1 2.5-4.2c1.4-2.2 4.6-7.8 7.3-12.3 2.6-4.6 4.8-8.3 4.9-8.3.1 0 5.2 3 11.5 6.6zM244 221.4c-1.6.9-6.4 8.1-13.3 19.8-12.1 20.8-12.9 23.8-7.9 28.7 3.2 3.2 34.6 21.7 38.4 22.6 1.6.4 4 0 6-.9 2.8-1.4 5.3-4.8 14.3-20.3 11.5-19.6 12.5-22.6 9.3-27.5-.9-1.4-9.9-7.3-19.9-13.2-19-11-21.8-11.9-26.9-9.2zm19.9 22.7l12 7-4.6 7.7c-2.5 4.2-5.6 9.6-7 11.9-1.4 2.4-3 4.3-3.5 4.3-1.4 0-23.8-13-23.8-13.8 0-1.2 13.5-24.2 14.2-24.2.4 0 6.1 3.2 12.7 7.1zm-124.8 4.6c-2.7 1.4-5.5 5.5-14.2 20.3-12.1 20.6-12.8 22.9-8.1 28 1.5 1.6 10.4 7.5 19.9 13 18.5 10.8 21.8 11.8 26.6 8 2.1-1.7 16.9-25.6 22.1-35.7 4.3-8.4 2.1-11-19.5-23.7-10-5.9-19.4-10.9-20.8-11.2-1.5-.3-4.1.3-6 1.3zm18.9 22.8c6.3 3.7 11.7 6.9 11.8 7 .5.4-13.7 24.5-14.4 24.5-.8 0-23.4-13.2-23.9-14-.5-.8 13.6-25 14.4-24.6.3.2 5.8 3.4 12.1 7.1zm151.6-10.3c-2.9 2.6-22.1 35-23.1 39-.4 1.6 0 3.9 1 6.2 1.4 2.9 4.4 5.1 19.1 13.6 22 12.8 22 12.8 27 10.4 3.4-1.7 5.2-4.1 14.7-20.3 6.8-11.8 10.7-19.5 10.7-21.3 0-6-2.2-7.9-21.3-19.1-20.2-11.7-23.3-12.7-28.1-8.5zm20.1 21.4c6.2 3.6 11.5 6.9 11.8 7.4.4.7-11.4 22.3-13.3 24.2-.4.3-6.2-2.6-12.9-6.6l-12.2-7.2 7.1-12.2c3.9-6.7 7.3-12.2 7.6-12.2.3 0 5.6 3 11.9 6.6zM205 288.2c-2.2 1.6-6.5 7.9-13.6 20-11.2 19-12.4 23.1-8.6 27.7.9 1.2 9.8 6.8 19.7 12.6 19.8 11.5 23.1 12.5 27.9 8.2 1.4-1.2 7.1-10.1 12.7-19.7 11.7-19.9 12.5-22.9 7.3-28-3.9-3.8-37.3-23-40-23-1.2 0-3.6 1-5.4 2.2zm31 30c0 1.9-13.5 23.9-14.5 23.6-2.3-.6-23.5-13.4-23.5-14.1 0-.5 3.2-6.2 7-12.7l7-11.9 12 7.1c6.6 3.8 12 7.5 12 8zm37.5 7.7c-3.3 1.4-5.8 4.9-14.7 20.1-11.8 20-12.1 20.7-11.4 24.5.9 4.4 2.8 5.9 22.3 17.4 19 11.2 22.7 12.2 27.4 7.8 1.3-1.2 7-10.1 12.7-19.8 11.2-19.3 12.2-22.6 8-27.3-2.9-3.1-36.1-22.6-39.7-23.1-1.4-.3-3.5-.1-4.6.4zm17.8 23.7c6.2 3.6 11.4 6.7 11.6 6.9.6.6-13.3 24.4-14.3 24.5-.4 0-6.2-3.2-12.8-7.1-11.5-6.8-11.9-7.1-10.5-9.2.7-1.2 4-6.6 7.1-12 3.1-5.3 6.2-9.7 6.7-9.7.6 0 6.1 3 12.2 6.6z"/></svg>